<svg xmlns="http://www.w3.org/2000/svg" width="32" height="32" viewBox="0 0 32 32"><g font-family="sans-serif" font-size="45.121" font-weight="400" letter-spacing="0" transform="translate(0 -1020.362)" word-spacing="0"><path style="isolation:auto;mix-blend-mode:normal" fill="#25b39e" d="m 3.00097,1031.3623 0,11 22,0 0,-4.0293 -1.560547,0.012 0,1.5429 c -4e-4,1.3281 -1.599138,2.0007 -2.548828,1.0723 l -2.6875,-2.6211 -1.703125,0 c -0.82839,-10e-5 -1.49992,-0.6716 -1.5,-1.5 l 0,-5.4765 -12,0 z m 1,1 5,0 0,5 -5,0 0,-5 z m 8,7 1,0 c 0.554,0 1,0.446 1,1 0,0.554 -0.446,1 -1,1 l -1,0 c -0.554,0 -1,-0.446 -1,-1 0,-0.554 0.446,-1 1,-1 z m 4,0 1,0 c 0.554,0 1,0.446 1,1 0,0.554 -0.446,1 -1,1 l -1,0 c -0.554,0 -1,-0.446 -1,-1 0,-0.554 0.446,-1 1,-1 z" color="#000" overflow="visible"/><path d="m 1.5,1029.3613 a 0.50005,0.50005 0 0 0 -0.5,0.5 l 0,17 a 0.50005,0.50005 0 0 0 0.5,0.5 l 25,0 a 0.50005,0.50005 0 0 0 0.5,-0.5 l 0,-8.5 0,-0.5 -1,0 0,0.5 0,8 -24,0 0,-16 14.335938,0 0.5,0 0,-1 -0.5,0 -14.835938,0 z" color="#000" font-size="medium" overflow="visible" style="line-height:125%;text-indent:0;text-align:start;text-decoration-line:none;text-decoration-style:solid;text-decoration-color:#000;text-transform:none;block-progression:tb;isolation:auto;mix-blend-mode:normal"/><path style="line-height:125%;text-indent:0;text-align:start;text-decoration-line:none;text-decoration-style:solid;text-decoration-color:#000;text-transform:none;block-progression:tb;isolation:auto;mix-blend-mode:normal" fill-rule="evenodd" d="m 2,1043.3613 0,1 24,0 0,-1 -24,0 z" color="#000" font-size="medium" overflow="visible"/><path d="m 10.5,1046.3613 a 0.50005,0.50005 0 0 0 -0.5,0.5 l 0,4 a 0.50005,0.50005 0 0 0 0.5,0.5 l 7,0 a 0.50005,0.50005 0 0 0 0.5,-0.5 l 0,-4 a 0.50005,0.50005 0 0 0 -0.5,-0.5 l -7,0 z m 0.5,1 6,0 0,3 -6,0 0,-3 z" color="#000" font-size="medium" overflow="visible" style="line-height:125%;text-indent:0;text-align:start;text-decoration-line:none;text-decoration-style:solid;text-decoration-color:#000;text-transform:none;block-progression:tb;isolation:auto;mix-blend-mode:normal"/><path style="line-height:125%;text-indent:0;text-align:start;text-decoration-line:none;text-decoration-style:solid;text-decoration-color:#000;text-transform:none;block-progression:tb;isolation:auto;mix-blend-mode:normal" fill-rule="evenodd" d="m 7,1050.3613 0,1 14,0 0,-1 -14,0 z" color="#000" font-size="medium" overflow="visible"/><path d="m 16.5,1021.3613 a 0.50004994,0.50004994 0 0 0 -0.5,0.5 l 0,14.9766 a 0.50004994,0.50004994 0 0 0 0.5,0.5 l 1.757812,0 0.363282,0.01 2.96875,2.8984 a 0.50004994,0.50004994 0 0 0 0.849609,-0.3574 l 0,-2.539 2.619141,-0.01 2.52539,0 2.916016,0 a 0.50004994,0.50004994 0 0 0 0.5,-0.5 l 0,-1.1231 0,-0.9257 0,-7.6192 0,-5.3086 a 0.50004994,0.50004994 0 0 0 -0.5,-0.5 l -3.888672,0 -10.111328,0 z m 0.5,1 9.611328,0 3.388672,0 0,4.8086 0,7.6192 0,0.9257 0,0.6231 -2.416016,0 -2.52539,0 a 0.50004994,0.50004994 0 0 0 -0.002,0 l -3.119141,0.012 a 0.50004994,0.50004994 0 0 0 -0.490234,0.5078 l -0.0078,-0.01 0,1.8496 -2.261719,-2.207 a 0.50004994,0.50004994 0 0 0 -0.33789,-0.1426 l -0.566406,-0.012 a 0.50004994,0.50004994 0 0 0 -0.0098,0 l -1.263672,0 0,-13.9766 z" color="#000" font-size="medium" overflow="visible" style="line-height:125%;text-indent:0;text-align:start;text-decoration-line:none;text-decoration-style:solid;text-decoration-color:#000;text-transform:none;block-progression:tb;isolation:auto;mix-blend-mode:normal"/><path style="line-height:125%;text-indent:0;text-align:start;text-decoration-line:none;text-decoration-style:solid;text-decoration-color:#000;text-transform:none;block-progression:tb;isolation:auto;mix-blend-mode:normal" fill-rule="evenodd" d="M4 1038.3613l0 1 4 0 0-1-4 0zM10 1032.3613l0 1 4 0 0-1-4 0zM10 1034.3613l0 1 4 0 0-1-4 0zM10 1036.3613l0 1 4 0 0-1-4 0z" color="#000" font-size="medium" overflow="visible"/><path style="isolation:auto;mix-blend-mode:normal" fill="#f8b84e" d="m 28.996375,1029.3646 a 4.9999871,4.9999871 0 0 1 -4.999988,5 4.9999871,4.9999871 0 0 1 -4.999987,-5 4.9999871,4.9999871 0 0 1 4.999987,-5 4.9999871,4.9999871 0 0 1 4.999988,5 z" color="#000" overflow="visible"/><path d="m 18.005859,1024.377 0,1 0.5,0 0.701172,0 0.5,0 0,-1 -0.5,0 -0.701172,0 -0.5,0 z m 1.726563,0.9863 0,1 0.5,0 6.576172,0 -0.97461,3 -4.804687,0 -0.5,0 0,1 0.5,0 5.167969,0 a 0.50005,0.50005 0 0 0 0.476562,-0.3457 l 1.298828,-4 a 0.50005,0.50005 0 0 0 -0.476562,-0.6543 l -7.263672,0 -0.5,0 z" color="#000" font-size="medium" overflow="visible" style="line-height:125%;text-indent:0;text-align:start;text-decoration-line:none;text-decoration-style:solid;text-decoration-color:#000;text-transform:none;block-progression:tb;isolation:auto;mix-blend-mode:normal"/><path d="m 19.638672,1024.3633 a 0.50005,0.50005 0 0 0 -0.458984,0.623 l 1.68164,7 a 0.50005,0.50005 0 0 0 0.486328,0.3828 l 4.154297,0 a 0.50005,0.50005 0 1 0 0,-1 l -3.761719,0 -1.58789,-6.6171 a 0.50005,0.50005 0 0 0 -0.513672,-0.3887 z" color="#000" font-size="medium" overflow="visible" style="line-height:125%;text-indent:0;text-align:start;text-decoration-line:none;text-decoration-style:solid;text-decoration-color:#000;text-transform:none;block-progression:tb;isolation:auto;mix-blend-mode:normal"/><path d="M21.462891 1031.3652c-.82209 0-1.500019.6779-1.5 1.5-.000019.8221.67791 1.5 1.5 1.5.822089 0 1.498065-.6779 1.498047-1.5.000018-.8221-.675958-1.5-1.498047-1.5zm0 1c.281375 0 .498053.2181.498047.5.000006.2819-.216672.5-.498047.5-.281375 0-.500007-.2181-.5-.5-.000007-.2819.218625-.5.5-.5zM25.417969 1031.3652c-.82209 0-1.498065.6779-1.498047 1.5-.000018.8221.675957 1.5 1.498047 1.5.822089 0 1.500018-.6779 1.5-1.5.000018-.8221-.677911-1.5-1.5-1.5zm0 1c.281375 0 .500006.2181.5.5.000006.2819-.218625.5-.5.5-.281375 0-.498053-.2181-.498047-.5-.000006-.2819.216672-.5.498047-.5z" color="#000" font-size="medium" overflow="visible" style="line-height:125%;text-indent:0;text-align:start;text-decoration-line:none;text-decoration-style:solid;text-decoration-color:#000;text-transform:none;block-progression:tb;isolation:auto;mix-blend-mode:normal"/><path style="line-height:125%;text-indent:0;text-align:start;text-decoration-line:none;text-decoration-style:solid;text-decoration-color:#000;text-transform:none;block-progression:tb;isolation:auto;mix-blend-mode:normal" fill-rule="evenodd" d="m 23.361328,1027.3633 0,1 3.595703,0 0,-1 -3.595703,0 z" color="#000" font-size="medium" overflow="visible"/></g></svg>